HIERARCHY
ROOT mixamorig:Hips
{
	OFFSET 0.000000 85.230415 0.000000
	CHANNELS 6 Xposition Yposition Zposition Zrotation Yrotation Xrotation 
	JOINT mixamorig:Spine
	{
		OFFSET -0.000014 7.868595 1.166200
		CHANNELS 3 Zrotation Yrotation Xrotation
		JOINT mixamorig:Spine1
		{
			OFFSET 0.000000 8.307600 0.241180
			CHANNELS 3 Zrotation Yrotation Xrotation
			JOINT mixamorig:Spine2
			{
				OFFSET 0.000000 7.469998 -0.455969
				CHANNELS 3 Zrotation Yrotation Xrotation
				JOINT mixamorig:Neck
				{
					OFFSET 0.000000 21.623920 -3.130763
					CHANNELS 3 Zrotation Yrotation Xrotation
					JOINT mixamorig:Head
					{
						OFFSET 0.000000 8.979096 1.007916
						CHANNELS 3 Zrotation Yrotation Xrotation
						JOINT mixamorig:HeadTop_End
						{
							OFFSET 0.000000 36.978806 0.701265
							CHANNELS 3 Zrotation Yrotation Xrotation
							End Site
							{
								OFFSET 0.000000 0.000000 0.000000
							}
						}
						JOINT mixamorig:HairB
						{
							OFFSET -6.414200 28.771164 21.708258
							CHANNELS 3 Zrotation Yrotation Xrotation
							End Site
							{
								OFFSET 0.000000 0.000000 0.000000
							}
						}
						JOINT mixamorig:HairA
						{
							OFFSET -11.484100 27.496475 17.498951
							CHANNELS 3 Zrotation Yrotation Xrotation
							End Site
							{
								OFFSET 0.000000 0.000000 0.000000
							}
						}
						JOINT mixamorig:Bow_Left
						{
							OFFSET -6.807600 33.586777 20.752766
							CHANNELS 3 Zrotation Yrotation Xrotation
							End Site
							{
								OFFSET 0.000000 0.000000 0.000000
							}
						}
						JOINT mixamorig:Bow_Right
						{
							OFFSET -11.133100 30.313980 19.500957
							CHANNELS 3 Zrotation Yrotation Xrotation
							End Site
							{
								OFFSET 0.000000 0.000000 0.000000
							}
						}
						JOINT mixamorig:HairC
						{
							OFFSET 2.525900 31.959274 20.608562
							CHANNELS 3 Zrotation Yrotation Xrotation
							JOINT mixamorig:HairC1
							{
								OFFSET 1.733735 -3.232010 3.632423
								CHANNELS 3 Zrotation Yrotation Xrotation
								End Site
								{
									OFFSET 0.000000 0.000000 0.000000
								}
							}
						}
						JOINT mixamorig:Ponytail
						{
							OFFSET -0.181100 31.348724 -13.427048
							CHANNELS 3 Zrotation Yrotation Xrotation
							JOINT mixamorig:Ponytail1
							{
								OFFSET -0.746532 2.567368 -7.327436
								CHANNELS 3 Zrotation Yrotation Xrotation
								JOINT mixamorig:Ponytail2
								{
									OFFSET -0.357839 -10.803711 -7.221615
									CHANNELS 3 Zrotation Yrotation Xrotation
									End Site
									{
										OFFSET 0.000000 0.000000 0.000000
									}
								}
							}
						}
					}
				}
				JOINT mixamorig:LeftShoulder
				{
					OFFSET 4.215800 16.566912 -4.092373
					CHANNELS 3 Zrotation Yrotation Xrotation
					JOINT mixamorig:LeftArm
					{
						OFFSET 8.521194 -0.267406 -1.717659
						CHANNELS 3 Zrotation Yrotation Xrotation
						JOINT mixamorig:LeftForeArm
						{
							OFFSET 21.262897 0.000002 -0.000001
							CHANNELS 3 Zrotation Yrotation Xrotation
							JOINT mixamorig:LeftHand
							{
								OFFSET 21.154701 -0.000003 -0.000001
								CHANNELS 3 Zrotation Yrotation Xrotation
								JOINT mixamorig:LeftHandThumb1
								{
									OFFSET 4.109039 -1.962593 2.610258
									CHANNELS 3 Zrotation Yrotation Xrotation
									JOINT mixamorig:LeftHandThumb2
									{
										OFFSET 3.101486 -1.790642 1.790644
										CHANNELS 3 Zrotation Yrotation Xrotation
										JOINT mixamorig:LeftHandThumb3
										{
											OFFSET 3.038742 -1.754417 1.754420
											CHANNELS 3 Zrotation Yrotation Xrotation
											JOINT mixamorig:LeftHandThumb4
											{
												OFFSET 2.539978 -1.466461 1.466458
												CHANNELS 3 Zrotation Yrotation Xrotation
												End Site
												{
													OFFSET 0.000000 0.000000 0.000000
												}
											}
										}
									}
								}
								JOINT mixamorig:LeftHandIndex1
								{
									OFFSET 11.845871 -0.683540 3.729384
									CHANNELS 3 Zrotation Yrotation Xrotation
									JOINT mixamorig:LeftHandIndex2
									{
										OFFSET 3.283096 0.000000 -0.000000
										CHANNELS 3 Zrotation Yrotation Xrotation
										JOINT mixamorig:LeftHandIndex3
										{
											OFFSET 3.323807 0.000000 -0.000000
											CHANNELS 3 Zrotation Yrotation Xrotation
											JOINT mixamorig:LeftHandIndex4
											{
												OFFSET 3.020599 0.000000 -0.000000
												CHANNELS 3 Zrotation Yrotation Xrotation
												End Site
												{
													OFFSET 0.000000 0.000000 0.000000
												}
											}
										}
									}
								}
								JOINT mixamorig:LeftHandMiddle1
								{
									OFFSET 12.082413 0.000000 -0.000000
									CHANNELS 3 Zrotation Yrotation Xrotation
									JOINT mixamorig:LeftHandMiddle2
									{
										OFFSET 3.410500 0.000000 0.000000
										CHANNELS 3 Zrotation Yrotation Xrotation
										JOINT mixamorig:LeftHandMiddle3
										{
											OFFSET 3.312202 0.000000 0.000000
											CHANNELS 3 Zrotation Yrotation Xrotation
											JOINT mixamorig:LeftHandMiddle4
											{
												OFFSET 3.438499 0.000000 0.000000
												CHANNELS 3 Zrotation Yrotation Xrotation
												End Site
												{
													OFFSET 0.000000 0.000000 0.000000
												}
											}
										}
									}
								}
								JOINT mixamorig:LeftHandRing1
								{
									OFFSET 12.470573 0.087585 -2.973213
									CHANNELS 3 Zrotation Yrotation Xrotation
									JOINT mixamorig:LeftHandRing2
									{
										OFFSET 3.053307 0.000000 0.000000
										CHANNELS 3 Zrotation Yrotation Xrotation
										JOINT mixamorig:LeftHandRing3
										{
											OFFSET 3.295898 0.000000 0.000000
											CHANNELS 3 Zrotation Yrotation Xrotation
											JOINT mixamorig:LeftHandRing4
											{
												OFFSET 3.727997 0.000000 0.000000
												CHANNELS 3 Zrotation Yrotation Xrotation
												End Site
												{
													OFFSET 0.000000 0.000000 0.000000
												}
											}
										}
									}
								}
								JOINT mixamorig:LeftHandPinky1
								{
									OFFSET 11.691048 -0.779549 -5.760270
									CHANNELS 3 Zrotation Yrotation Xrotation
									JOINT mixamorig:LeftHandPinky2
									{
										OFFSET 2.861702 0.000000 0.000000
										CHANNELS 3 Zrotation Yrotation Xrotation
										JOINT mixamorig:LeftHandPinky3
										{
											OFFSET 2.863403 0.000000 0.000000
											CHANNELS 3 Zrotation Yrotation Xrotation
											JOINT mixamorig:LeftHandPinky4
											{
												OFFSET 2.545403 0.000000 0.000000
												CHANNELS 3 Zrotation Yrotation Xrotation
												End Site
												{
													OFFSET 0.000000 0.000000 0.000000
												}
											}
										}
									}
								}
							}
							JOINT mixamorig:LeftWristTwist
							{
								OFFSET 10.565701 0.000000 -0.000000
								CHANNELS 3 Zrotation Yrotation Xrotation
								End Site
								{
									OFFSET 0.000000 0.000000 0.000000
								}
							}
						}
						JOINT mixamorig:LeftUpArmTwist
						{
							OFFSET 10.646198 0.000000 -0.000000
							CHANNELS 3 Zrotation Yrotation Xrotation
							End Site
							{
								OFFSET 0.000000 0.000000 0.000000
							}
						}
					}
				}
				JOINT mixamorig:Right_Breast
				{
					OFFSET -2.562200 12.208893 5.100423
					CHANNELS 3 Zrotation Yrotation Xrotation
					End Site
					{
						OFFSET 0.000000 0.000000 0.000000
					}
				}
				JOINT mixamorig:Left_Breast
				{
					OFFSET 2.562200 12.208893 5.100423
					CHANNELS 3 Zrotation Yrotation Xrotation
					End Site
					{
						OFFSET 0.000000 0.000000 0.000000
					}
				}
				JOINT mixamorig:RightShoulder
				{
					OFFSET -4.215800 16.567416 -4.092373
					CHANNELS 3 Zrotation Yrotation Xrotation
					JOINT mixamorig:RightArm
					{
						OFFSET -8.521288 -0.267902 -1.717664
						CHANNELS 3 Zrotation Yrotation Xrotation
						JOINT mixamorig:RightForeArm
						{
							OFFSET -21.262793 -0.000002 0.000001
							CHANNELS 3 Zrotation Yrotation Xrotation
							JOINT mixamorig:RightHand
							{
								OFFSET -21.154800 0.000000 -0.000001
								CHANNELS 3 Zrotation Yrotation Xrotation
								JOINT mixamorig:RightHandThumb1
								{
									OFFSET -4.108955 -1.962654 2.610195
									CHANNELS 3 Zrotation Yrotation Xrotation
									JOINT mixamorig:RightHandThumb2
									{
										OFFSET -3.101406 -1.790596 1.790599
										CHANNELS 3 Zrotation Yrotation Xrotation
										JOINT mixamorig:RightHandThumb3
										{
											OFFSET -3.038822 -1.754463 1.754464
											CHANNELS 3 Zrotation Yrotation Xrotation
											JOINT mixamorig:RightHandThumb4
											{
												OFFSET -2.539749 -1.466324 1.466325
												CHANNELS 3 Zrotation Yrotation Xrotation
												End Site
												{
													OFFSET 0.000000 0.000000 0.000000
												}
											}
										}
									}
								}
								JOINT mixamorig:RightHandIndex1
								{
									OFFSET -11.845840 -0.684052 3.729363
									CHANNELS 3 Zrotation Yrotation Xrotation
									JOINT mixamorig:RightHandIndex2
									{
										OFFSET -3.283096 0.000000 -0.000000
										CHANNELS 3 Zrotation Yrotation Xrotation
										JOINT mixamorig:RightHandIndex3
										{
											OFFSET -3.323807 0.000000 -0.000000
											CHANNELS 3 Zrotation Yrotation Xrotation
											JOINT mixamorig:RightHandIndex4
											{
												OFFSET -3.020599 0.000000 0.000000
												CHANNELS 3 Zrotation Yrotation Xrotation
												End Site
												{
													OFFSET 0.000000 0.000000 0.000000
												}
											}
										}
									}
								}
								JOINT mixamorig:RightHandMiddle1
								{
									OFFSET -12.082314 0.000000 0.000000
									CHANNELS 3 Zrotation Yrotation Xrotation
									JOINT mixamorig:RightHandMiddle2
									{
										OFFSET -3.410606 0.000000 0.000000
										CHANNELS 3 Zrotation Yrotation Xrotation
										JOINT mixamorig:RightHandMiddle3
										{
											OFFSET -3.312195 0.000000 0.000000
											CHANNELS 3 Zrotation Yrotation Xrotation
											JOINT mixamorig:RightHandMiddle4
											{
												OFFSET -3.438499 0.000000 0.000000
												CHANNELS 3 Zrotation Yrotation Xrotation
												End Site
												{
													OFFSET 0.000000 0.000000 0.000000
												}
											}
										}
									}
								}
								JOINT mixamorig:RightHandRing1
								{
									OFFSET -12.470573 0.087166 -2.973210
									CHANNELS 3 Zrotation Yrotation Xrotation
									JOINT mixamorig:RightHandRing2
									{
										OFFSET -3.053299 0.000000 0.000000
										CHANNELS 3 Zrotation Yrotation Xrotation
										JOINT mixamorig:RightHandRing3
										{
											OFFSET -3.295898 0.000000 0.000000
											CHANNELS 3 Zrotation Yrotation Xrotation
											JOINT mixamorig:RightHandRing4
											{
												OFFSET -3.727997 0.000000 0.000000
												CHANNELS 3 Zrotation Yrotation Xrotation
												End Site
												{
													OFFSET 0.000000 0.000000 0.000000
												}
											}
										}
									}
								}
								JOINT mixamorig:RightHandPinky1
								{
									OFFSET -11.691017 -0.779953 -5.760294
									CHANNELS 3 Zrotation Yrotation Xrotation
									JOINT mixamorig:RightHandPinky2
									{
										OFFSET -2.861603 0.000000 0.000000
										CHANNELS 3 Zrotation Yrotation Xrotation
										JOINT mixamorig:RightHandPinky3
										{
											OFFSET -2.863403 0.000000 0.000000
											CHANNELS 3 Zrotation Yrotation Xrotation
											JOINT mixamorig:RightHandPinky4
											{
												OFFSET -2.545303 0.000000 0.000000
												CHANNELS 3 Zrotation Yrotation Xrotation
												End Site
												{
													OFFSET 0.000000 0.000000 0.000000
												}
											}
										}
									}
								}
							}
							JOINT mixamorig:RightWristTwist
							{
								OFFSET -10.565701 0.000000 0.000000
								CHANNELS 3 Zrotation Yrotation Xrotation
								End Site
								{
									OFFSET 0.000000 0.000000 0.000000
								}
							}
						}
						JOINT mixamorig:RightUpArmTwist
						{
							OFFSET -10.646093 0.000000 0.000001
							CHANNELS 3 Zrotation Yrotation Xrotation
							End Site
							{
								OFFSET 0.000000 0.000000 0.000000
							}
						}
					}
				}
			}
		}
		JOINT mixamorig:Belly
		{
			OFFSET 0.000000 -0.538567 3.357786
			CHANNELS 3 Zrotation Yrotation Xrotation
			End Site
			{
				OFFSET 0.000000 0.000000 0.000000
			}
		}
	}
	JOINT mixamorig:LeftUpLeg
	{
		OFFSET 8.267015 -7.995487 -0.379100
		CHANNELS 3 Zrotation Yrotation Xrotation
		JOINT mixamorig:LeftLeg
		{
			OFFSET -0.000034 -32.369440 0.062314
			CHANNELS 3 Zrotation Yrotation Xrotation
			JOINT mixamorig:LeftFoot
			{
				OFFSET 0.000024 -35.030462 -2.208349
				CHANNELS 3 Zrotation Yrotation Xrotation
				JOINT mixamorig:LeftToeBase
				{
					OFFSET 1.232905 -9.835773 10.854839
					CHANNELS 3 Zrotation Yrotation Xrotation
					JOINT mixamorig:LeftToe_End
					{
						OFFSET 0.210410 0.001970 7.008142
						CHANNELS 3 Zrotation Yrotation Xrotation
						End Site
						{
							OFFSET 0.000000 0.000000 0.000000
						}
					}
				}
			}
		}
	}
	JOINT mixamorig:RightUpLeg
	{
		OFFSET -8.266986 -7.995517 -0.379100
		CHANNELS 3 Zrotation Yrotation Xrotation
		JOINT mixamorig:RightLeg
		{
			OFFSET 0.000002 -32.369437 0.062314
			CHANNELS 3 Zrotation Yrotation Xrotation
			JOINT mixamorig:RightFoot
			{
				OFFSET 0.000001 -35.030467 -2.208349
				CHANNELS 3 Zrotation Yrotation Xrotation
				JOINT mixamorig:RightToeBase
				{
					OFFSET -1.232895 -9.835700 10.854908
					CHANNELS 3 Zrotation Yrotation Xrotation
					JOINT mixamorig:RightToe_End
					{
						OFFSET -0.214257 0.001952 7.007725
						CHANNELS 3 Zrotation Yrotation Xrotation
						End Site
						{
							OFFSET 0.000000 0.000000 0.000000
						}
					}
				}
			}
		}
	}
	JOINT mixamorig:SkirtA
	{
		OFFSET 11.243096 1.931320 -10.868500
		CHANNELS 3 Zrotation Yrotation Xrotation
		JOINT mixamorig:SkirtA1
		{
			OFFSET 2.094878 -7.760521 -3.754759
			CHANNELS 3 Zrotation Yrotation Xrotation
			End Site
			{
				OFFSET 0.000000 0.000000 0.000000
			}
		}
	}
	JOINT mixamorig:SkirtB
	{
		OFFSET -0.000008 4.335800 -15.692000
		CHANNELS 3 Zrotation Yrotation Xrotation
		JOINT mixamorig:SkirtB1
		{
			OFFSET 0.000000 -9.729668 -3.399943
			CHANNELS 3 Zrotation Yrotation Xrotation
			End Site
			{
				OFFSET 0.000000 0.000000 0.000000
			}
		}
	}
	JOINT mixamorig:SkirtC
	{
		OFFSET -11.243104 1.931381 -10.868500
		CHANNELS 3 Zrotation Yrotation Xrotation
		JOINT mixamorig:SkirtC1
		{
			OFFSET -1.996108 -7.801628 -3.723248
			CHANNELS 3 Zrotation Yrotation Xrotation
			End Site
			{
				OFFSET 0.000000 0.000000 0.000000
			}
		}
	}
}
MOTION
Frames: 4
Frame Time: 0.016667
-37.807301 81.152534 -73.624969 -2.221359 41.590011 -5.190496 9.394182 6.652184 14.968069 2.270223 2.387951 3.013843 3.342828 4.976365 3.257643 0.367739 -2.376580 3.772812 11.513024 -30.997599 -19.663556 0.000000 0.000000 0.000000 0.000002 0.000001 0.000000 0.000000 -0.000003 -0.000002 0.000008 -0.000004 -0.000003 -0.000003 0.000002 0.000001 -0.000002 -0.000003 -0.000003 -0.000000 -0.000002 0.000001 -0.000001 -0.000001 -0.000001 -0.000001 -0.000002 -0.000001 -0.000001 -0.000001 0.000006 -19.001184 -7.221238 3.125027 -64.823089 -4.281544 -4.969425 -0.054522 -25.202429 -0.007930 2.249394 2.889172 4.081205 6.429199 4.893275 4.893868 9.924170 6.672672 16.419783 13.822144 -6.150893 -16.451065 0.000001 -0.000001 -0.000000 -32.867429 -0.338079 -0.687594 -27.043576 2.667660 -0.641622 -8.143222 0.831605 -0.059208 0.000003 -0.000002 -0.000000 -47.332711 4.313199 -3.573855 -26.944102 2.658594 -0.637011 -19.640289 1.972713 -0.341488 -0.000001 -0.000000 -0.000001 -55.140014 7.575100 -4.401790 -35.418766 3.398823 -1.085595 -29.413574 2.881125 -0.756365 0.000000 -0.000001 0.000000 -62.657363 4.144573 -5.387356 -32.998693 3.194419 -0.946416 -36.508505 3.488891 -1.151069 -0.000002 -0.000002 0.000000 0.000003 -0.000002 0.000003 0.000000 0.000000 -0.000001 0.000001 -0.000002 0.000001 0.000001 -0.000002 0.000001 22.811248 20.001489 6.706209 37.303151 19.076517 -4.478399 0.279950 20.613820 0.059176 -7.422339 19.552157 -1.437833 1.659149 -1.630433 -1.242640 -12.036057 -19.343882 19.701834 -12.720677 -9.168268 -12.858124 0.000002 0.000006 0.000003 34.080086 -0.956650 0.001044 53.463210 -3.744838 -1.886556 33.921837 -2.602927 -0.793967 0.000000 0.000000 0.000002 43.761076 -2.228696 -2.833231 54.312175 -3.785411 -1.942296 41.855447 -3.111293 -1.190067 0.000000 -0.000001 0.000000 49.099179 -1.431409 -3.295809 38.502227 -2.903210 -1.014094 51.324035 -3.638959 -1.748781 -0.000001 0.000001 -0.000001 43.077652 -1.147046 -3.525962 52.113223 -3.678614 -1.799156 40.836878 -3.049199 -1.135339 -0.000001 -0.000001 0.000002 -0.000001 0.000000 0.000000 0.000000 0.000000 -0.000001 0.000000 -0.000002 -0.000001 5.391674 7.514449 -35.927062 7.146047 6.770415 44.191244 -6.044624 9.813122 -10.183742 -0.000007 -0.000006 -4.657158 0.000000 0.000001 0.000000 0.880406 -10.279084 -22.662496 0.133872 -11.122423 16.669137 -5.707181 -6.382777 3.885719 0.000001 -0.000003 -2.170568 0.000000 0.000000 0.000000 0.000000 -0.000003 -0.000005 0.000000 0.000004 0.000001 0.000002 -0.000001 -0.000002 0.000001 -0.000002 -0.000002 0.000000 -0.000005 0.000000 0.000001 0.000002 0.000002 
-38.302254 81.070419 -74.535843 -2.302015 41.403571 -5.354780 9.567090 6.920105 14.883614 2.295265 2.459570 2.999861 3.447567 5.233177 3.249439 0.454745 -2.375813 3.737529 11.936928 -31.192897 -19.672737 0.000000 0.000000 0.000001 -0.000003 0.000000 0.000001 -0.000002 -0.000001 0.000000 0.000004 -0.000003 -0.000003 -0.000005 0.000002 0.000005 -0.000001 0.000000 0.000001 0.000002 -0.000001 0.000004 -0.000001 0.000000 0.000003 0.000001 0.000001 0.000001 0.000000 0.000000 0.000003 -18.979618 -7.234652 3.159683 -64.959194 -2.004885 -8.057664 -0.065437 -22.355491 0.003746 2.971293 6.388536 1.077686 6.429202 4.893278 4.893874 9.924170 6.672673 16.419782 13.806212 -5.050434 -16.002422 -0.000001 0.000006 -0.000001 -34.226944 -0.182879 -0.692448 -28.202812 2.772650 -0.696654 -9.051076 0.923599 -0.073091 -0.000001 -0.000002 0.000000 -48.867059 4.388265 -3.733731 -28.310533 2.782364 -0.701860 -20.798131 2.083916 -0.382470 -0.000001 -0.000002 0.000000 -56.806141 7.599129 -4.582389 -36.949896 3.524991 -1.178063 -30.779298 3.001882 -0.826445 0.000000 -0.000001 -0.000001 -64.388369 4.178443 -5.568074 -34.649966 3.334529 -1.040459 -38.038584 3.613166 -1.245836 0.000002 -0.000000 0.000001 0.000000 0.000001 0.000002 -0.000001 -0.000000 -0.000001 0.000000 0.000002 0.000000 0.000000 0.000002 0.000000 22.698717 20.132788 6.725691 36.634967 20.404333 -4.375782 0.272916 21.819697 0.079010 -7.009985 19.976456 -1.396077 1.044236 -1.750229 -1.172663 -12.036058 -19.343876 19.701837 -12.711284 -8.109365 -13.271166 0.000000 -0.000001 0.000000 32.471678 -0.835558 0.015932 51.849537 -3.665416 -1.782263 32.311740 -2.493290 -0.722387 -0.000000 -0.000001 0.000004 41.977927 -2.146607 -2.681564 52.694616 -3.707397 -1.836593 40.497390 -3.028275 -1.117340 -0.000001 0.000000 0.000003 47.170295 -1.350517 -3.126412 36.708599 -2.787766 -0.925058 49.712079 -3.555763 -1.647618 0.000001 0.000000 -0.000005 40.942404 -1.069542 -3.402522 50.221224 -3.582348 -1.679346 39.051122 -2.937964 -1.042058 -0.000001 -0.000000 -0.000002 0.000000 -0.000001 0.000000 -0.000001 0.000001 0.000001 0.000001 0.000000 -0.000001 6.186674 7.722172 -34.546026 7.196627 6.549068 44.984201 -5.894670 10.070169 -10.478523 -0.000007 0.000007 -4.650841 0.000000 -0.000002 0.000000 0.840259 -10.214469 -22.682117 0.542476 -10.985536 15.242136 -6.121204 -6.213850 5.388343 0.000000 0.000000 -2.176593 0.000000 0.000000 0.000000 -0.000003 -0.000003 -0.000004 -0.000001 0.000001 -0.000000 0.000001 -0.000001 -0.000002 0.000000 -0.000004 -0.000002 -0.000000 -0.000003 0.000001 -0.000002 -0.000004 0.000000 
-38.816826 80.996147 -75.478439 -2.372913 41.322566 -5.397383 9.652817 7.082713 14.748699 2.316299 2.495176 2.968604 3.647352 5.672038 3.227450 0.539124 -2.377332 3.679484 12.495319 -31.225927 -19.792787 0.000000 0.000000 -0.000002 -0.000000 0.000001 -0.000002 0.000000 -0.000003 -0.000005 0.000005 -0.000004 -0.000001 -0.000000 -0.000003 0.000001 -0.000002 -0.000001 -0.000002 0.000001 -0.000002 0.000002 -0.000001 -0.000002 -0.000001 -0.000002 0.000001 0.000001 0.000001 0.000000 -0.000001 -18.739477 -7.338994 3.192293 -65.029939 0.555729 -10.547484 -0.075389 -21.627880 0.005572 2.854809 11.490902 -1.341102 6.429195 4.893273 4.893867 9.924171 6.672678 16.419783 13.799511 -3.935004 -15.551514 0.000001 -0.000000 0.000002 -35.673428 -0.021064 -0.699824 -29.470832 2.886201 -0.759243 -10.088942 1.028449 -0.090780 0.000002 0.000001 0.000003 -50.467146 4.461967 -3.902035 -29.764137 2.912284 -0.774082 -22.064516 2.204533 -0.429855 0.000000 -0.000001 0.000000 -58.516292 7.618365 -4.768864 -38.546739 3.653879 -1.278038 -32.232165 3.128456 -0.904138 -0.000000 -0.000002 0.000002 -66.141358 4.206835 -5.751501 -36.345260 3.475480 -1.141151 -39.634297 3.740022 -1.348175 -0.000001 -0.000002 0.000001 0.000001 0.000000 -0.000001 -0.000000 0.000001 -0.000002 0.000000 0.000002 0.000000 0.000000 0.000002 0.000000 22.626856 20.037064 6.681318 35.915946 21.926065 -4.064756 0.264372 23.033348 0.097160 -6.303800 20.339510 -1.269727 0.391259 -1.878308 -1.092731 -12.036058 -19.343880 19.701836 -12.709445 -6.987983 -13.711482 0.000004 0.000002 -0.000001 30.766623 -0.703306 0.029348 50.138797 -3.578071 -1.674190 30.604749 -2.374892 -0.649891 0.000000 0.000000 -0.000002 40.136889 -2.056944 -2.526985 50.979733 -3.621405 -1.726992 39.003440 -2.934969 -1.039627 0.000000 0.000000 -0.000004 45.221882 -1.263026 -2.957090 34.856761 -2.665655 -0.836950 48.003133 -3.464526 -1.542990 0.000000 0.000000 0.000003 38.829299 -0.986229 -3.283224 48.310091 -3.481151 -1.561580 37.207428 -2.820137 -0.949460 0.000000 0.000000 0.000000 -0.000001 0.000001 0.000001 -0.000001 -0.000000 -0.000001 0.000000 0.000003 0.000000 6.897574 7.922992 -33.052401 7.262109 6.500670 45.291624 -5.713889 10.176971 -10.604845 -0.000001 0.000001 -4.720752 0.000000 -0.000001 0.000000 0.758204 -10.165445 -22.747416 1.033649 -10.796949 13.608336 -6.573703 -6.135526 7.102996 0.000002 0.000002 -2.181486 0.000000 0.000001 0.000000 0.000000 -0.000003 -0.000001 0.000001 -0.000001 0.000001 -0.000001 -0.000002 0.000000 0.000000 -0.000002 0.000000 0.000002 -0.000003 -0.000000 0.000001 -0.000003 -0.000003 
-39.355286 80.932159 -76.466797 -2.422962 41.340517 -5.391356 9.621618 7.097465 14.572035 2.330155 2.481416 2.925925 3.972991 6.356535 3.200629 0.616591 -2.398476 3.635939 13.095283 -31.056599 -19.987136 -0.000001 0.000000 0.000000 0.000002 0.000000 -0.000002 -0.000001 -0.000003 -0.000002 0.000004 -0.000003 -0.000005 0.000000 0.000002 0.000003 -0.000002 -0.000001 0.000000 -0.000002 -0.000000 -0.000002 -0.000001 -0.000001 -0.000001 0.000004 0.000001 -0.000001 -0.000000 -0.000001 0.000006 -18.332190 -7.483669 3.224991 -64.900409 3.529582 -12.088212 -0.080961 -21.574917 0.008453 1.483739 16.220474 -3.049425 6.429201 4.893272 4.893869 9.924165 6.672675 16.419777 13.802275 -2.811543 -15.100862 -0.000003 0.000001 0.000003 -37.196135 0.145496 -0.709938 -30.836825 3.006947 -0.829474 -11.246009 1.144912 -0.112729 -0.000003 0.000003 -0.000000 -52.122128 4.533244 -4.077691 -31.294154 3.046970 -0.853608 -23.428691 2.333259 -0.483867 0.000000 -0.000004 0.000000 -60.259530 7.632271 -4.959922 -40.198402 3.784171 -1.385188 -33.761417 3.259478 -0.989347 -0.000002 -0.000000 -0.000001 -67.905395 4.229446 -5.936280 -38.073664 3.616001 -1.248060 -41.284846 3.868141 -1.457689 -0.000001 -0.000002 -0.000001 -0.000002 0.000000 0.000001 0.000000 0.000002 0.000001 -0.000001 0.000000 0.000002 -0.000001 0.000000 0.000002 22.611877 19.723823 6.588387 35.165805 23.621665 -3.537275 0.244052 24.230857 0.109372 -5.294707 20.654505 -1.040548 -0.292479 -2.013251 -1.002823 -12.036056 -19.343877 19.701835 -12.716441 -5.817224 -14.174767 -0.000003 -0.000002 0.000001 28.984375 -0.560916 0.040668 48.350496 -3.483327 -1.564049 28.820338 -2.248849 -0.577908 0.000002 0.000000 0.000000 38.257385 -1.960283 -2.371399 49.187085 -3.528084 -1.615202 37.393131 -2.832155 -0.958608 0.000000 0.000000 -0.000003 43.273871 -1.169819 -2.789739 32.966226 -2.538100 -0.751125 46.216728 -3.365847 -1.436566 0.000000 0.000000 -0.000001 36.760135 -0.898401 -3.169311 46.399404 -3.376092 -1.447297 35.325232 -2.696801 -0.858848 0.000000 0.000000 0.000001 0.000000 0.000000 0.000000 0.000002 0.000001 0.000000 0.000001 -0.000006 -0.000000 7.519756 8.099908 -31.437917 7.389243 6.625091 45.211037 -5.405477 10.099032 -10.633861 -0.000002 -0.000008 -4.999214 0.000000 -0.000003 0.000000 0.602929 -10.109163 -22.684907 1.608899 -10.585883 11.598212 -7.083021 -6.151441 9.102402 0.000002 0.000004 -2.185141 0.000000 0.000000 0.000000 -0.000001 -0.000000 -0.000003 0.000001 0.000001 0.000003 0.000000 0.000000 0.000000 -0.000000 -0.000003 0.000002 0.000002 0.000002 0.000000 0.000000 0.000000 0.000000 
